<?xml version="1.0" encoding="UTF-8"?>
<svg width="114px" height="6px" viewBox="0 0 114 6" version="1.1" xmlns="http://www.w3.org/2000/svg" xmlns:xlink="http://www.w3.org/1999/xlink">
    <!-- Generator: Sketch 52.2 (67145) - http://www.bohemiancoding.com/sketch -->
    <title>Fill 1</title>
    <desc>Created with Sketch.</desc>
    <g id="Page-1" stroke="none" stroke-width="1" fill="none" fill-rule="evenodd">
        <g id="RCT_Homepage" transform="translate(-294.000000, -1330.000000)" fill="#FFFFFF">
            <path d="M407.757813,1333.3125 L298.91127,1332.6315 L297.804975,1332.625 C297.821397,1332.747 297.831798,1332.8725 297.831798,1333 C297.831798,1334.0845 297.205025,1335 296.463299,1335 C295.721572,1335 295.094799,1334.0845 295.094799,1333 C295.094799,1331.916 295.721572,1331 296.463299,1331 C296.883154,1331 297.261407,1331.2995 297.514306,1331.75 L298.708185,1331.75 C298.325005,1330.7095 297.475988,1330 296.463299,1330 C295.082209,1330 294,1331.318 294,1333 C294,1334.6825 295.082209,1336 296.463299,1336 C297.631997,1336 298.583925,1335.055 298.849414,1333.746 L407.757813,1333.3125 Z" id="Fill-1"></path>
        </g>
    </g>
</svg>