<?xml version="1.0" encoding="UTF-8"?>
<svg width="185px" height="8px" viewBox="0 0 185 8" version="1.1" xmlns="http://www.w3.org/2000/svg" xmlns:xlink="http://www.w3.org/1999/xlink">
    <!-- Generator: Sketch 52.2 (67145) - http://www.bohemiancoding.com/sketch -->
    <title>Fill 1</title>
    <desc>Created with Sketch.</desc>
    <g id="Page-1" stroke="none" stroke-width="1" fill="none" fill-rule="evenodd">
        <g id="Desktop-HD-Copy-6" transform="translate(-147.000000, -1228.000000)" fill="#221E1F">
            <path d="M332,1232.41667 L152.678656,1231.50867 L151.399503,1231.5 C151.41849,1231.66267 151.430516,1231.83 151.430516,1232 C151.430516,1233.446 150.70581,1234.66667 149.848189,1234.66667 C148.990568,1234.66667 148.265862,1233.446 148.265862,1232 C148.265862,1230.55467 148.990568,1229.33333 149.848189,1229.33333 C150.333647,1229.33333 150.771002,1229.73267 151.063416,1230.33333 L152.443839,1230.33333 C152.000787,1228.946 151.019111,1228 149.848189,1228 C148.251304,1228 147,1229.75733 147,1232 C147,1234.24333 148.251304,1236 149.848189,1236 C151.199496,1236 152.300163,1234.74 152.607135,1232.99467 L332,1232.41667 Z" id="Fill-1"></path>
        </g>
    </g>
</svg>